<?xml version="1.0" encoding="utf-8"?>
<!-- Generator: Adobe Illustrator 18.1.1, SVG Export Plug-In . SVG Version: 6.00 Build 0)  -->
<svg version="1.1" id="Layer_1" xmlns="http://www.w3.org/2000/svg" xmlns:xlink="http://www.w3.org/1999/xlink" x="0px" y="0px"
	 viewBox="0 0 240.391 226.414" enable-background="new 0 0 240.391 226.414" xml:space="preserve">
<defs>
	
	<script  language="JavaScript" xlink:href="svg.js"></script>
</defs>
<script  type="text/JavaScript">
	<![CDATA[
function notify( ref, type ) {
    var event = document.createEvent("CustomEvent");
    event.initEvent(type,true,true);
    ref.dispatchEvent(event);
}

		
		
		
		
		
		
		
		
		
		
		
		]]>
</script>
<g>
	<g>
		<path fill="#EA8E10" d="M168.026,16.669c-13.312-2.005-30.541-3.215-49.379-3.215c-17.388,0-33.399,1.03-46.229,2.765V40.46H36.65
			v93.13H203.79V40.91h-35.765V16.669L168.026,16.669z"/>
	</g>
	<path fill="#231F20" d="M168.026,47.872V16.768c18.291,3.174,30.136,8.172,30.136,13.814c3.104,0,5.629,2.596,5.629,5.802v11.488
		H168.026z"/>
	<path fill="#231F20" d="M72.415,47.374V16.269C54.124,19.444,42.28,24.442,42.28,30.084c-3.105,0-5.632,2.594-5.632,5.801v11.488
		L72.415,47.374L72.415,47.374z"/>
</g>
<path fill="#F5A909" d="M213.098,132.777c-4.225-4.224-12.777-4.512-19.145-8.106c-25.554-14.445-43.263-19.029-73.162-19.029
	c-0.188,0-0.381,0.002-0.568,0.004c-0.188-0.001-0.385-0.004-0.569-0.004c-29.899,0-47.606,4.584-73.161,19.029
	c-6.367,3.597-14.923,3.886-19.146,8.106c-12.045,12.046-4.393,37.98-4.393,37.98c0,0.695,0.555,1.248,1.241,1.248h96.024h96.027
	c0.688,0,1.244-0.553,1.244-1.248C217.49,170.756,225.145,144.823,213.098,132.777z"/>
<path fill="#F5A909" d="M143.329,14.193c0-2.861-9.302-9.327-23.238-9.327c-13.922,0-22.979,6.466-22.979,9.327"/>
<path fill="#231F20" d="M216.016,172.004h-18.505h-39.844h-75.73H42.691H24.429c-0.729,0-1.311,0.83-1.311,1.861l3.521,8.496
	c0,1.078,0.562,1.967,1.252,1.967h13.404v26.131c0,0.854,0.625,1.549,1.395,1.549h39.246c0.768,0,1.393-0.694,1.393-1.549v-16.332
	h72.936v16.332c0,0.854,0.619,1.549,1.404,1.549h39.844c0.779,0,1.398-0.694,1.398-1.549v-26.131h13.629
	c0.699,0,1.266-0.889,1.266-1.967l3.518-8.496C217.321,172.835,216.729,172.004,216.016,172.004z"/>
<path fill="#12100B" stroke="#4D4947" stroke-width="6" d="M162.682,155.443c0,3.901-3.162,7.063-7.063,7.063H84.823
	c-3.902,0-7.064-3.162-7.064-7.063v-26.56c0-3.907,3.162-7.069,7.064-7.069h70.795c3.901,0,7.063,3.162,7.063,7.069V155.443
	L162.682,155.443z"/>
<path fill="#D0D0D0" stroke="#231F20" stroke-width="4" d="M213.374,147.778c0,8.426-6.817,15.258-15.256,15.258
	c-8.41,0-15.248-6.83-15.248-15.258c0-8.424,6.838-15.255,15.248-15.255C206.557,132.524,213.374,139.354,213.374,147.778z"/>
<path fill="#FFFFFF" stroke="#231F20" stroke-width="2" d="M207.565,147.778c0,5.217-4.222,9.443-9.442,9.443
	c-5.207,0-9.439-4.229-9.439-9.443c0-5.214,4.232-9.441,9.439-9.441C203.343,138.336,207.565,142.564,207.565,147.778z"/>
<path fill="#D0D0D0" stroke="#231F20" stroke-width="4" d="M57.571,147.778c0,8.426-6.817,15.258-15.259,15.258
	c-8.409,0-15.248-6.83-15.248-15.258c0-8.424,6.839-15.255,15.248-15.255C50.751,132.524,57.571,139.354,57.571,147.778z"/>
<path fill="#FFFFFF" stroke="#231F20" stroke-width="2" d="M51.757,147.778c0,5.217-4.221,9.443-9.443,9.443
	c-5.207,0-9.438-4.229-9.438-9.443c0-5.214,4.23-9.441,9.438-9.441C47.538,138.336,51.757,142.564,51.757,147.778z"/>
<line fill="none" stroke="#4D4947" stroke-width="5" x1="79.828" y1="138.493" x2="160.614" y2="138.493"/>
<line fill="none" stroke="#4D4947" stroke-width="5" x1="79.828" y1="130.113" x2="160.614" y2="130.113"/>
<line fill="none" stroke="#4D4947" stroke-width="5" x1="79.828" y1="146.874" x2="160.614" y2="146.874"/>
<line fill="none" stroke="#4D4947" stroke-width="5" x1="79.828" y1="155.254" x2="160.614" y2="155.254"/>
<g>
	<path fill="#FFFFFF" d="M115.517,91.793c0,0.688-0.555,1.249-1.244,1.249H43.56c-0.688,0-1.246-0.562-1.246-1.249V57.367
		c0-0.688,0.56-1.25,1.246-1.25h70.713c0.689,0,1.244,0.562,1.244,1.25V91.793z"/>
	<path fill="#FFFFFF" d="M198.12,91.793c0,0.688-0.556,1.249-1.242,1.249h-70.701c-0.692,0-1.264-0.562-1.264-1.249V57.367
		c0-0.688,0.567-1.25,1.264-1.25h70.701c0.688,0,1.242,0.562,1.242,1.25V91.793z"/>
</g>
<g>
	<path fill="#BD2D1E" d="M141.6,85.888l-0.026-0.014l-0.023,0.019c-0.155-0.322-0.469-0.388-0.77-0.474
		c-0.046-0.069-0.113-0.089-0.191-0.085c-0.171-0.121-0.317-0.293-0.558-0.274l-0.038,0.003c-0.034-0.113-0.117-0.165-0.227-0.182
		c-0.027-0.024-0.054-0.048-0.08-0.071c-0.079-0.149-0.204-0.211-0.37-0.195c-0.013-0.197-0.157-0.183-0.294-0.181l-0.025-0.012
		l-0.025,0.012c-0.106-0.205-0.276-0.321-0.499-0.366c-0.149-0.037-0.223-0.231-0.408-0.193c-0.033-0.113-0.119-0.161-0.226-0.182
		c-0.042-0.072-0.109-0.094-0.187-0.092c-0.139-0.114-0.259-0.261-0.459-0.274c-0.044-0.003-0.089-0.005-0.133-0.008
		c-0.14-0.221-0.33-0.359-0.602-0.356l-0.025-0.012l-0.025,0.014c-0.196-0.26-0.504-0.329-0.778-0.458
		c-0.073-0.007-0.145-0.013-0.218-0.02c-0.09-0.225-0.277-0.31-0.499-0.345c0,0-0.006,0.002-0.006,0.002
		c-0.339-0.267-0.682-0.528-1.104-0.656l-0.024-0.014c0,0-0.022,0.017-0.023,0.017c-0.041-0.168-0.152-0.253-0.32-0.272
		c-0.04-0.073-0.106-0.099-0.184-0.102c-0.101-0.106-0.224-0.163-0.37-0.174c-0.044-0.002-0.088-0.004-0.133-0.006
		c-0.028-0.118-0.113-0.171-0.224-0.193c-0.059-0.08-0.149-0.087-0.235-0.099c-0.236-0.202-0.506-0.366-0.694-0.621
		c0.007-0.301-0.387-0.421-0.335-0.742c0.05,0.034,0.108,0.061,0.149,0.103c0.878,0.921,1.943,1.553,3.111,2.034
		c0.449,0.185,0.896,0.391,1.312,0.64c1.175,0.705,2.371,1.385,3.584,2.007c1.541,0.79,3.068,1.614,4.643,2.344
		c2.467,1.143,4.64,2.802,7.022,4.098c0.419,0.228,0.8,0.658,1.283,0.013c-0.067,0.493-0.14,0.912-0.528,1.193
		c-0.109-0.089-0.217-0.178-0.326-0.268c-0.038-0.02-0.076-0.04-0.113-0.06c-0.324-0.421-0.759-0.682-1.247-0.865
		c-0.021-0.008-0.036-0.021-0.046-0.041c-0.008-0.151-0.119-0.146-0.225-0.151c-0.072-0.005-0.144-0.011-0.217-0.016l-0.025-0.013
		l-0.027,0.007c-0.192-0.276-0.478-0.416-0.775-0.542c-0.105-0.033-0.21-0.066-0.315-0.099c-0.061-0.199-0.218-0.257-0.403-0.274
		c-0.229-0.26-0.513-0.438-0.838-0.552c-0.044-0.003-0.089-0.006-0.133-0.009c-0.089-0.229-0.269-0.328-0.502-0.35l-0.002,0.001
		c-0.152-0.235-0.417-0.276-0.647-0.376c-0.043-0.005-0.087-0.009-0.131-0.013c-0.035-0.114-0.118-0.163-0.23-0.174
		c-0.056-0.115-0.152-0.172-0.277-0.185c-0.549-0.278-1.029-0.689-1.641-0.844c-0.092-0.099-0.207-0.101-0.328-0.081
		c-0.054-0.158-0.155-0.255-0.33-0.26c-0.088-0.038-0.176-0.076-0.264-0.113C142.43,86.178,142.066,85.922,141.6,85.888z"/>
	<path fill="#BD2D1E" d="M151.814,79.171c0.083,0.174,0.246,0.17,0.403,0.18c0.048,0.064,0.113,0.081,0.188,0.072
		c0.12,0.205,0.356,0.191,0.533,0.287c0.21,0.114,0.51,0.112,0.576,0.423c-0.753-0.179-1.468-0.471-2.2-0.713
		c-1.545-0.511-3.099-0.99-4.684-1.378c-2.612-0.64-5.259-1.001-7.94-1.107c-1.122-0.044-2.243-0.043-3.373,0.125
		c-1.012,0.15-2.006,0.32-2.974,0.639c-0.855,0.282-1.104,0.615-1.124,1.436c-0.265-0.082-0.169-0.295-0.147-0.458
		c0.04-0.292,0.22-0.528,0.36-0.779c0.026-0.01,0.052-0.02,0.077-0.032c0.2-0.055,0.378-0.14,0.462-0.349l0.012-0.013
		c0.663-0.218,1.326-0.435,1.989-0.653c0.058-0.005,0.117-0.011,0.175-0.016c0.258-0.007,0.51-0.04,0.744-0.16
		c0.118-0.008,0.237-0.016,0.355-0.024c0.38,0.019,0.747-0.045,1.109-0.154c0.089-0.009,0.179-0.019,0.268-0.028
		c0.19,0.005,0.388,0.071,0.559-0.072c0.213-0.005,0.427-0.01,0.64-0.015c0.591,0.065,1.184-0.005,1.78,0.071
		c0.811,0.104,1.619,0.316,2.449,0.187c0.12,0.009,0.24,0.018,0.36,0.027c0.23,0.137,0.495,0.104,0.743,0.156
		c0.059,0.01,0.118,0.02,0.177,0.03c0.623,0.262,1.309,0.22,1.95,0.408c0.92,0.27,1.865,0.43,2.808,0.593l0.007,0.004
		c0.024,0.06,0.059,0.067,0.104,0.02c0.05,0.007,0.1,0.014,0.15,0.02c0.605,0.341,1.262,0.535,1.933,0.689
		c0.206,0.068,0.411,0.136,0.616,0.204c0.262,0.186,0.551,0.309,0.867,0.368l0.022,0.01L151.814,79.171z"/>
	<path fill="#652B26" d="M148.091,77.856c-0.943-0.163-1.888-0.323-2.808-0.593c-0.64-0.188-1.327-0.146-1.95-0.408
		c0.413-0.245,0.788,0.025,1.179,0.085c1.045,0.16,2.073,0.395,3.093,0.666C147.772,77.65,148.026,77.59,148.091,77.856z"/>
	<path fill="#652B26" d="M142.052,76.642c-0.83,0.129-1.638-0.083-2.449-0.187c-0.596-0.077-1.189-0.006-1.78-0.071
		c0.052-0.212,0.226-0.161,0.37-0.168c0.851-0.041,1.688,0.1,2.523,0.223c0.319,0.047,0.634,0.027,0.95,0.051
		C141.81,76.502,141.982,76.444,142.052,76.642z"/>
	<path fill="#652B26" d="M131.433,77.898c-0.14,0.251-0.321,0.487-0.36,0.779c-0.022,0.163-0.119,0.376,0.147,0.458
		c0.014,0.049,0.028,0.097,0.043,0.146c-0.053,0.322,0.342,0.442,0.335,0.742c-0.426,0.016-0.469-0.394-0.622-0.625
		C130.62,78.866,130.908,78.034,131.433,77.898z"/>
	<path fill="#652B26" d="M150.285,78.589c-0.672-0.154-1.329-0.348-1.933-0.689C149.033,78.024,149.756,78.034,150.285,78.589z"/>
	<path fill="#652B26" d="M133.974,76.852c-0.663,0.218-1.326,0.435-1.989,0.653c0.018-0.053,0.021-0.142,0.054-0.155
		c0.568-0.226,1.138-0.45,1.739-0.579C133.855,76.754,133.924,76.786,133.974,76.852z"/>
	<path fill="#652B26" d="M136.357,76.498c-0.361,0.11-0.729,0.174-1.109,0.154C135.591,76.405,135.955,76.318,136.357,76.498z"/>
	<path fill="#652B26" d="M134.893,76.676c-0.234,0.12-0.486,0.153-0.744,0.16C134.356,76.593,134.6,76.518,134.893,76.676z"/>
	<path fill="#652B26" d="M143.156,76.826c-0.248-0.052-0.513-0.02-0.743-0.156C142.709,76.488,142.946,76.595,143.156,76.826z"/>
	<path fill="#652B26" d="M131.972,77.518c-0.084,0.209-0.262,0.293-0.462,0.349C131.546,77.594,131.696,77.471,131.972,77.518z"/>
	<path fill="#652B26" d="M137.184,76.398c-0.171,0.143-0.369,0.077-0.559,0.072C136.78,76.201,136.979,76.276,137.184,76.398z"/>
	<path fill="#652B26" d="M148.201,77.88c-0.045,0.048-0.079,0.04-0.104-0.02C148.132,77.867,148.167,77.873,148.201,77.88z"/>
	<path fill="#844438" d="M150.149,90.521c0.489,0.183,0.923,0.444,1.247,0.865c-0.134,0.039-0.222-0.079-0.34-0.096
		c-0.022-0.105-0.093-0.149-0.194-0.156c-0.183-0.128-0.311-0.338-0.559-0.366c-0.045-0.003-0.09-0.006-0.136-0.009
		C150.162,90.68,150.155,90.6,150.149,90.521z"/>
	<path fill="#FD8882" d="M197.249,72.515c-0.053-0.052-0.107-0.103-0.16-0.155c-0.124,0.008-0.203-0.045-0.229-0.169
		c-0.046-0.021-0.091-0.042-0.137-0.063c-0.136,0.07-0.194-0.005-0.228-0.124c-0.023-0.017-0.025-0.035-0.006-0.056
		c-0.08-0.016-0.16-0.032-0.24-0.048c-0.087,0.005-0.174,0.011-0.26,0.016c-0.71,0.133-1.425,0.058-2.139,0.065l-0.147,0.005
		c-0.16,0.08-0.32,0.158-0.493,0.032c-0.253-0.033-0.47,0.095-0.703,0.152c-0.113,0.132-0.255,0.107-0.399,0.076
		c-0.585,0.018-1.121,0.244-1.674,0.396c-0.16,0.044-0.325,0.066-0.488,0.099c-0.266,0.15-0.551,0.224-0.856,0.218
		c-0.137,0.041-0.274,0.081-0.412,0.122c-0.504,0.322-1.103,0.427-1.624,0.714c-1.284,0.707-2.68,1.157-4.018,1.74
		c-0.891,0.388-1.794,0.749-2.669,1.171c-1.066,0.514-2.105,1.085-3.162,1.619c-0.596,0.302-1.188,0.628-1.814,0.852
		c-0.404,0.145-0.384,0.362-0.308,0.663c0.015,0.058,0.06,0.109,0.074,0.167c0.046,0.186,0.29,0.425,0.039,0.548
		c-0.243,0.119-0.35-0.201-0.444-0.367c-0.38-0.669-0.53-1.429-0.733-2.157c-0.486-1.742-0.752-3.534-1.03-5.32
		c-0.023-0.151-0.043-0.305,0.044-0.446c0.002-0.086,0.004-0.172,0.007-0.257c-0.332-0.012-0.478,0.151-0.536,0.479
		c-0.112,0.641-0.124,1.31-0.441,1.903c-0.691,1.293-1.787,2.104-3.147,2.564c-1.729,0.584-3.479,0.684-5.235,0.098
		c-0.914-0.248-1.683-0.751-2.386-1.368c-0.585-0.339-1.017-0.819-1.312-1.425c-0.941-1.406-1.465-2.94-1.376-4.645
		c0.049-0.946,0.143-1.889,0.227-2.832c0.019-0.218-0.011-0.542,0.247-0.576c0.269-0.036,0.571,0.058,0.728,0.369
		c0.158,0.313,0.352,0.608,0.517,0.919c0.845,1.596,2.051,2.824,3.675,3.636c0.714,0.357,1.459,0.535,2.258,0.468
		c0.122-0.072,0.25-0.072,0.381-0.029c0.119-0.017,0.238-0.033,0.357-0.05c0.123-0.037,0.242-0.097,0.376-0.049
		c0.12-0.017,0.24-0.033,0.36-0.05c0.021-0.026,0.047-0.031,0.078-0.018c0.018-0.015,0.037-0.018,0.058-0.009
		c0.047-0.014,0.093-0.028,0.14-0.041c0.059-0.014,0.117-0.028,0.176-0.042l2.271-0.829l0.028,0.024l-0.027-0.026
		c0.87-0.574,1.78-1.093,2.543-1.815c0.234-0.222,0.702-0.418,0.591-0.725c-0.111-0.309-0.611-0.292-0.954-0.377
		c-0.042-0.01-0.09,0.003-0.136,0.006c-1.001,1.223-2.26,1.817-3.859,1.576c-0.623-0.131-1.22-0.316-1.673-0.802
		c-0.055-0.036-0.109-0.072-0.164-0.108l-0.019,0.011l0.008-0.02c-0.109-0.001-0.218-0.002-0.326-0.003l0.006,0.016l-0.012-0.012
		c-1.117,0.725-2.31,0.878-3.574,0.464c-0.066-0.022-0.12-0.084-0.179-0.127c-1.012-0.29-1.553-1.106-2.115-1.898
		c-0.059-0.083-0.114-0.196-0.019-0.292c0.116-0.116,0.224,0.003,0.334,0.03c0.037-0.292,0.198-0.533,0.312-0.795
		c0.159-0.365,0.188-0.728-0.231-0.969c-0.17,0.191-0.332,0.029-0.442-0.053c-0.472-0.353-0.91-0.21-1.359,0.036
		c-0.078,0.043-0.145,0.222-0.258,0.086c-0.115-0.138,0.047-0.214,0.123-0.293c0.287-0.3,0.691-0.363,1.053-0.509
		c0.271-0.773,0.558-1.537,1.207-2.092c0.023-0.031,0.046-0.062,0.069-0.093c0.152-0.283,0.366-0.499,0.674-0.609
		c0.01-0.022,0.027-0.034,0.051-0.037l-0.004-0.019l0.004,0.016c1.326-0.966,3.101-0.991,4.528-0.026
		c0.315,0.213,0.524,0.24,0.838-0.001c0.442-0.34,0.997-0.431,1.54-0.516c0.787-0.323,0.803-0.332,0.369-1.14
		c-0.371-0.691-0.573-1.473-1.115-2.072c-0.032-0.004-0.059-0.017-0.081-0.04c-0.404-0.094-0.762-0.297-1.128-0.479
		c-0.104-0.052-0.224-0.12-0.18-0.278c0.032-0.114,0.114-0.171,0.229-0.195c0.079-0.017,0.188,0.044,0.24-0.102
		c-0.028-0.025-0.06-0.054-0.092-0.082h-7.981c-0.349,1.303-0.606,2.629-0.942,3.935c-0.388,1.513-0.85,3.009-1.119,4.549
		c-0.209,1.195-0.315,2.421-0.589,3.591c-0.346,1.475-0.536,2.95-0.671,4.448c-0.101,1.118-0.291,2.227-0.505,3.332
		c-0.106,0.548-0.163,1.114-0.144,1.681c0.005,0.151,0.085,0.347-0.131,0.441c-0.013,0.159,0.021,0.325-0.066,0.474
		c0.255,0.394,0.114,0.821,0.073,1.227c-0.059,0.584,0.013,0.76,0.557,0.986c0.098,0.041,0.197,0.083,0.288,0.138
		c0.102,0.061,0.155,0.167,0.096,0.273c-0.06,0.109-0.168,0.035-0.243,0.004c-0.412-0.174-0.902-0.202-1.187-0.619
		c-0.116-0.041-0.233-0.081-0.349-0.122c-0.032-0.021-0.064-0.043-0.096-0.064c-0.03-0.01-0.06-0.021-0.09-0.031
		c-0.217,0.002-0.439,0.016-0.54-0.242c-0.034-0.004-0.069-0.007-0.103-0.011c-0.753-0.179-1.468-0.471-2.201-0.713
		c-1.545-0.511-3.099-0.99-4.684-1.378c-2.612-0.64-5.259-1.001-7.94-1.107c-1.122-0.044-2.243-0.043-3.373,0.125
		c-1.012,0.15-2.006,0.32-2.974,0.639c-0.855,0.282-1.104,0.615-1.124,1.436c0.014,0.049,0.028,0.097,0.042,0.146
		c0.05,0.034,0.108,0.061,0.149,0.103c0.878,0.921,1.943,1.553,3.111,2.034c0.449,0.185,0.896,0.391,1.312,0.64
		c1.175,0.705,2.371,1.385,3.584,2.007c1.541,0.791,3.068,1.614,4.643,2.344c2.467,1.143,4.64,2.802,7.022,4.098
		c0.419,0.228,0.8,0.658,1.283,0.013c-0.067,0.493-0.14,0.912-0.528,1.193c-0.226,0.581-0.453,1.163-0.679,1.744h11.127
		c-0.015-0.093-0.021-0.191-0.024-0.279c-0.01-0.243,0.036-0.532,0.359-0.517c0.317,0.015,0.332,0.294,0.327,0.546
		c0.001,0.084-0.006,0.169-0.02,0.25h15.109c1.078-0.089,2.154-0.187,3.223-0.312c0.196-0.023,0.386-0.036,0.57-0.039
		c-0.076-1.157-0.592-2.214-0.979-3.279c-0.433-1.191-1.082-2.308-1.724-3.415c-0.322-0.555-0.602-1.138-0.888-1.726
		c0.389,0.265,0.615,0.667,0.894,1.021c0.542,0.686,0.831,1.522,1.308,2.247c0.307,0.467,0.397,0.466,0.773,0.06
		c1.845-1.994,3.793-3.876,5.908-5.587c2.394-1.936,4.711-3.97,7.177-5.814c0.936-0.701,1.828-1.423,2.536-2.352
		C197.222,73.75,197.463,73.181,197.249,72.515z M160.309,58.422c0.084-0.185,0.228-0.32,0.394-0.433
		c0.842-0.571,1.703-1.113,2.604-1.587c0.104-0.055,0.23-0.098,0.345-0.096c0.182,0.003,0.306,0.079,0.148,0.281
		c-0.023,0.073-0.074,0.113-0.149,0.123c-0.052,0.046-0.105,0.092-0.157,0.138c-0.016,0.127,0.015,0.15,0.139,0.09
		c0.194-0.093,0.475-0.179,0.56,0.044c0.096,0.249-0.177,0.359-0.393,0.43c-0.927,0.517-1.801,1.113-2.654,1.743
		c-0.09,0.08-0.175,0.167-0.271,0.237c-0.084,0.061-0.184,0.132-0.292,0.059c-0.11-0.075-0.079-0.193-0.041-0.29
		c0.072-0.182,0.147-0.334-0.145-0.401C160.219,58.719,160.248,58.556,160.309,58.422z M138.336,79.125
		c-0.189-0.051-0.463-0.058-0.454-0.331c0.008-0.241,0.262-0.284,0.456-0.269c0.191,0.015,0.481-0.014,0.455,0.303
		C138.774,79.065,138.563,79.12,138.336,79.125z M168.783,86.47c-0.179-0.014-0.216-0.191-0.232-0.341
		c-0.017-0.151,0.044-0.282,0.212-0.286c0.197-0.005,0.237,0.147,0.246,0.303C169.003,86.309,168.987,86.485,168.783,86.47z
		 M169.747,78.193c-1.628,1.012-3.353,1.166-5.158,0.57c-0.414-0.137-0.526-0.21-0.74-0.515c0.836,0.463,1.739,0.358,2.628,0.368
		c1.066,0.012,2.089-0.156,3.041-0.662c0.027-0.014,0.053-0.035,0.082-0.04c0.153-0.025,0.353-0.224,0.445-0.046
		C170.146,78.065,169.878,78.111,169.747,78.193z M174.86,92.214c-0.355-0.038-0.374-0.358-0.414-0.624
		c-0.033-0.219,0.115-0.386,0.311-0.367c0.315,0.03,0.397,0.285,0.38,0.613C175.123,91.987,175.158,92.246,174.86,92.214z
		 M180.001,79.839c-0.191,0.01-0.326-0.051-0.341-0.268c-0.019-0.266,0.317-0.575,0.642-0.588c0.2-0.008,0.371,0.046,0.406,0.27
		C180.744,79.498,180.33,79.833,180.001,79.839z M194.443,75.623c-0.188,0.014-0.297-0.042-0.28-0.195
		c0.033-0.289,0.203-0.465,0.5-0.484c0.147-0.009,0.289,0.051,0.273,0.226C194.908,75.487,194.658,75.569,194.443,75.623z"/>
	<path fill="#844438" d="M150.103,90.48c-0.125,0.024-0.194-0.035-0.225-0.151C149.984,90.333,150.095,90.329,150.103,90.48z"/>
	<path fill="#652B26" d="M154.792,79.594c0.004-0.09,0.008-0.179,0.012-0.269c0.161-0.125,0.001-0.394,0.22-0.493
		c0.044,0.619,0.145,1.249-0.331,1.77c-0.116-0.041-0.233-0.081-0.349-0.122c-0.032-0.021-0.064-0.043-0.096-0.064
		c-0.03-0.01-0.06-0.021-0.09-0.031c-0.124-0.083-0.248-0.167-0.372-0.25c0.061-0.025,0.122-0.05,0.183-0.075
		c0.024,0.007,0.048,0.01,0.073,0.007c0.163,0.214,0.396,0.242,0.602,0.136C154.891,80.078,154.78,79.809,154.792,79.594z"/>
	<path fill="#BD2D1E" d="M153.785,80.136c0.124,0.084,0.248,0.167,0.372,0.25c-0.217,0.002-0.439,0.016-0.54-0.242
		C153.674,80.142,153.729,80.139,153.785,80.136z"/>
	<path fill="#652B26" d="M182.276,93.121c0.085,0.006,0.167,0.015,0.249,0.025c-0.024-0.454-0.156-0.898-0.222-1.348
		c-0.153-0.22-0.076-0.5-0.187-0.731c-0.095-0.071-0.09-0.174-0.085-0.276l-0.002-0.004c-0.207-0.095-0.183-0.282-0.183-0.459
		c-0.003-0.053-0.007-0.106-0.01-0.16c-0.509-0.503-0.565-1.041-0.159-1.553c0.073-0.093,0.179-0.166,0.144-0.308
		c-0.688,0.374-0.837,0.777-0.493,1.435C181.886,90.81,182.188,91.938,182.276,93.121z"/>
	<path fill="#281009" d="M187.251,83.429c-0.026,0.068-0.053,0.135-0.079,0.203c-0.06,0.001-0.12,0.002-0.181,0.003l-0.019-0.02
		C187,83.455,187.123,83.439,187.251,83.429z"/>
	<path fill="#652B26" d="M187.251,83.429c-0.128,0.01-0.252,0.026-0.279,0.186c-0.258,0.165-0.565,0.268-0.719,0.565
		c-0.063,0.089-0.191,0.127-0.202,0.256c-0.297,0.151-0.546,0.36-0.754,0.621c-0.131,0.164-0.253,0.354-0.515,0.285
		c-0.007-0.111,0.023-0.205,0.11-0.284c0.493-0.443,0.952-0.932,1.485-1.319c0.346-0.251,0.574-0.677,1.045-0.754
		c-0.028,0.119-0.056,0.238-0.084,0.358C187.309,83.372,187.28,83.401,187.251,83.429z"/>
	<path fill="#BD2D1E" d="M197.631,72.899c-0.061-0.204-0.151-0.359-0.382-0.383c0.214,0.665-0.026,1.234-0.416,1.745
		c-0.708,0.929-1.599,1.652-2.536,2.352c-2.466,1.845-4.783,3.878-7.177,5.814c-2.115,1.711-4.063,3.593-5.908,5.587
		c-0.376,0.406-0.466,0.407-0.773-0.06c-0.477-0.725-0.766-1.561-1.308-2.247c-0.279-0.353-0.505-0.756-0.894-1.021
		c0.286,0.588,0.566,1.171,0.888,1.726c0.642,1.107,1.291,2.224,1.724,3.415c0.388,1.065,0.903,2.122,0.979,3.279
		c0.154-0.003,0.302,0.005,0.447,0.015c-0.087-1.184-0.39-2.312-0.948-3.378c-0.344-0.658-0.195-1.061,0.493-1.435
		c0,0,0.026-0.032,0.026-0.032c0.248-0.599,0.813-0.924,1.219-1.387c0.396-0.452,0.928-0.777,1.274-1.287
		c0.094-0.138,0.226-0.253,0.421-0.226l0.022-0.034c-0.007-0.111,0.023-0.205,0.11-0.284c0.493-0.443,0.952-0.932,1.485-1.319
		c0.346-0.251,0.574-0.677,1.044-0.754l0.027-0.02c0.344-0.629,0.973-0.971,1.48-1.431c0.231-0.21,0.393-0.564,0.785-0.565
		c0,0,0.027-0.024,0.027-0.024c0.008-0.104,0.061-0.156,0.167-0.147c0.212-0.068,0.345-0.231,0.474-0.399
		c0.23-0.43,0.671-0.636,1.019-0.937c0.607-0.525,1.246-1.013,1.869-1.52c0.089-0.072,0.183-0.104,0.295-0.091
		c0,0,0.023-0.03,0.023-0.03c0.176-0.387,0.467-0.63,0.89-0.708c0,0,0.032-0.022,0.032-0.022c0.267-0.467,0.714-0.769,1.106-1.098
		c0.596-0.501,1.033-1.141,1.601-1.66c0.065-0.06,0.1-0.151,0.209-0.147C197.627,73.779,197.771,73.364,197.631,72.899z"/>
	<path fill="#F5F6F5" d="M173.065,63.906c0.007,0.063,0.014,0.126,0.021,0.188c-0.014,0.348-0.01,0.698-0.044,1.044
		c-0.144,1.428-1.203,3.403-3.133,3.698c-0.427,0.065-0.849,0.017-1.273,0.037c-0.553-0.168-1.085-0.38-1.543-0.746
		c-0.221-0.123-0.242-0.28-0.078-0.467c0.077-0.088,0.154-0.177,0.231-0.266l0.035-0.012l-0.006-0.037
		c0.017-0.033,0.033-0.067,0.05-0.1c0.195-0.09,0.264-0.285,0.364-0.449c0.72-1.186,0.622-2.442,0.28-3.705
		c-0.116-0.428-0.209-0.887-0.598-1.186c-0.099-0.172-0.108-0.282,0.094-0.43c0.852-0.625,1.822-0.749,2.833-0.741
		c0.062,0.015,0.123,0.03,0.184,0.045c0.06,0.018,0.12,0.037,0.18,0.055c0.062,0.015,0.124,0.03,0.186,0.046
		c0.039,0.073,0.104,0.086,0.178,0.075c0.081,0.044,0.163,0.088,0.244,0.132c0.049,0.082,0.115,0.14,0.213,0.153
		c0.252,0.249,0.503,0.498,0.755,0.747C172.633,62.575,172.892,63.222,173.065,63.906z M170.492,65.055
		c-1.181,0.011-2.143,1.399-1.747,2.521c0.158,0.447,0.531,0.646,1.023,0.547c0.921-0.187,1.738-1.252,1.683-2.195
		C171.418,65.357,171.081,65.05,170.492,65.055z"/>
	<path fill="#31130F" d="M170.3,60.734c-1.011-0.008-1.981,0.116-2.833,0.741c-0.202,0.148-0.193,0.258-0.094,0.43
		c-0.264,0.21-0.245-0.237-0.439-0.19c-0.748-0.711-1.633-1.104-2.669-1.063c-0.91,0.036-1.681,0.464-2.4,0.991
		c-0.178-0.264,0.182-0.332,0.192-0.527c0.01-0.022,0.027-0.034,0.051-0.037l0-0.003c1.326-0.966,3.101-0.991,4.528-0.027
		c0.315,0.213,0.524,0.24,0.838-0.001c0.442-0.34,0.997-0.431,1.54-0.516c0.379,0.131,0.709-0.185,1.081-0.116
		C170.092,60.567,170.262,60.608,170.3,60.734z"/>
	<path fill="#652B26" d="M170.095,60.415c-0.372-0.069-0.703,0.247-1.081,0.116c0.787-0.323,0.803-0.332,0.369-1.14
		c-0.371-0.691-0.573-1.473-1.114-2.072c0.537,0.26,1.056,0.481,1.23,1.184c0.093,0.375,0.226,0.807,0.533,1.124
		c0.07,0.072,0.053,0.228,0.076,0.346c-0.001,0.147-0.003,0.293-0.004,0.44L170.095,60.415z"/>
	<path fill="#31130F" d="M173.065,63.906c-0.174-0.684-0.433-1.33-0.826-1.92c0.097-0.007,0.19,0,0.252,0.091
		c0.248,0.509,0.482,1.024,0.648,1.567C173.174,63.752,173.282,63.873,173.065,63.906z"/>
	<path fill="#31130F" d="M170.103,60.414c0.001-0.147,0.003-0.293,0.004-0.44C170.393,60.123,170.409,60.27,170.103,60.414z"/>
	<path fill="#31130F" d="M170.664,60.834c-0.06-0.018-0.12-0.037-0.18-0.055C170.583,60.67,170.632,60.724,170.664,60.834z"/>
	<path fill="#31130F" d="M171.028,60.954c-0.075,0.011-0.139-0.002-0.178-0.075C170.971,60.757,171.008,60.835,171.028,60.954z"/>
	<path fill="#31130F" d="M171.485,61.239c-0.098-0.014-0.164-0.071-0.213-0.153C171.396,61.064,171.473,61.107,171.485,61.239z"/>
	<path fill="#652B26" d="M193.21,72.019c-0.253-0.033-0.47,0.095-0.704,0.152c-0.006-0.06-0.012-0.121-0.018-0.181
		c0.031-0.034,0.063-0.069,0.094-0.103c0.562-0.108,1.124-0.214,1.686-0.324c0.578-0.113,1.145,0.018,1.714,0.082
		c0.129,0.014,0.271,0.074,0.267,0.257c-0.087,0.006-0.174,0.011-0.26,0.016c-0.687-0.228-1.381-0.134-2.075-0.048
		c-0.026,0.003-0.043,0.074-0.064,0.114c-0.049,0.002-0.098,0.003-0.148,0.005C193.528,71.85,193.363,71.84,193.21,72.019z"/>
	<path fill="#652B26" d="M189.65,72.72c0.44-0.299,0.958-0.356,1.456-0.482c0.157-0.04,0.337-0.033,0.468-0.157
		c0.063-0.026,0.127-0.052,0.19-0.078c0.129,0.006,0.258,0.011,0.387,0.016c-0.015,0.075-0.029,0.151-0.044,0.227
		c-0.585,0.018-1.121,0.244-1.674,0.396c-0.16,0.044-0.325,0.066-0.488,0.098C189.847,72.735,189.749,72.728,189.65,72.72z"/>
	<path fill="#BD2D1E" d="M192.107,72.247c0.015-0.076,0.029-0.151,0.044-0.227c0.112-0.01,0.224-0.02,0.336-0.031
		c0.006,0.061,0.012,0.121,0.018,0.182C192.394,72.303,192.251,72.278,192.107,72.247z"/>
	<path fill="#652B26" d="M197.426,74.188c-0.015,0.479-0.396,0.717-0.689,0.999c-0.142,0.136-0.241,0.256-0.223,0.454
		c-0.496,0.41-0.988,0.824-1.489,1.228c-0.147,0.118-0.281,0.293-0.514,0.224c0.267-0.467,0.714-0.769,1.106-1.098
		c0.597-0.501,1.033-1.141,1.601-1.66C197.283,74.275,197.318,74.183,197.426,74.188z"/>
	<path fill="#652B26" d="M190.383,80.402c0.23-0.43,0.671-0.636,1.019-0.937c0.607-0.525,1.246-1.013,1.869-1.519
		c0.089-0.072,0.183-0.104,0.295-0.091c0.043,0.138-0.03,0.213-0.128,0.305c-0.822,0.773-1.788,1.364-2.631,2.111
		C190.705,80.361,190.543,80.417,190.383,80.402z"/>
	<path fill="#652B26" d="M187.449,82.967c0.344-0.629,0.973-0.971,1.48-1.431c0.231-0.21,0.393-0.564,0.785-0.565
		c-0.054,0.488-0.543,0.548-0.817,0.819c-0.321,0.318-0.678,0.601-1.031,0.885c-0.108,0.087-0.155,0.177-0.156,0.305
		C187.624,82.975,187.536,82.971,187.449,82.967z"/>
	<path fill="#652B26" d="M193.589,77.823c0.176-0.387,0.467-0.63,0.89-0.708C194.354,77.637,194.109,77.832,193.589,77.823z"/>
	<path fill="#652B26" d="M196.712,71.8c0.038,0.205,0.36,0.12,0.366,0.358c-0.073,0.011-0.146,0.022-0.219,0.033
		c-0.046-0.021-0.091-0.042-0.137-0.063c-0.037-0.113-0.122-0.138-0.228-0.124c-0.023-0.017-0.025-0.035-0.006-0.056
		C196.531,71.851,196.612,71.811,196.712,71.8z"/>
	<path fill="#652B26" d="M189.741,80.947c0.008-0.104,0.061-0.156,0.167-0.147C189.911,80.916,189.857,80.966,189.741,80.947z"/>
	<path fill="#652B26" d="M158.853,56.145c-0.19,0.498-0.293,1.026-0.491,1.521c-0.126,0.315-0.073,0.691-0.334,0.955
		c-0.012,0.111-0.024,0.223-0.036,0.335c-0.144,0.367-0.05,0.806-0.339,1.129c0,0.051,0,0.102-0.001,0.153
		c0.053,0.333,0.02,0.648-0.197,0.924c-0.005,0.06-0.009,0.119-0.014,0.179c-0.118,0.429-0.237,0.859-0.355,1.288
		c-0.003,0.121-0.006,0.242-0.01,0.364c0.011,0.157,0.041,0.321-0.157,0.395c-0.008,0.114-0.016,0.228-0.024,0.342
		c0.006,0.076-0.005,0.145-0.079,0.187l0.002-0.001c-0.013,0.256,0.031,0.525-0.172,0.737c-0.009,0.119-0.019,0.238-0.029,0.357
		c-0.021,0.034-0.042,0.068-0.064,0.102c-0.043,0.271-0.086,0.542-0.128,0.813c-0.229,0.885-0.321,1.8-0.606,2.672
		c-0.007,0.119-0.015,0.239-0.023,0.358c0.009,0.076-0.007,0.143-0.072,0.192c-0.009,0.211-0.019,0.422-0.028,0.633
		c0.011,0.132,0.047,0.268-0.075,0.373l-0.008,0.179c-0.043,0.465,0.16,0.96-0.171,1.389c-0.01,0.087-0.02,0.173-0.03,0.26
		c0.018,0.102,0.03,0.203-0.063,0.28c-0.008,0.151-0.016,0.303-0.024,0.455c-0.053,0.399-0.006,0.812-0.164,1.198
		c-0.005,0.09-0.009,0.18-0.014,0.269c0.008,0.131,0.044,0.268-0.074,0.374c-0.008,0.211-0.017,0.423-0.025,0.634
		c0.002,0.28,0.081,0.565-0.066,0.833c-0.012,0.856-0.024,1.712-0.036,2.567c0.028,0.003,0.057,0.007,0.085,0.009
		c0.026-0.003,0.052-0.004,0.077-0.004c0.086-0.149,0.052-0.315,0.066-0.474c-0.042-1.098,0.014-2.188,0.221-3.271
		c0.051-0.267,0.054-0.549,0.033-0.821c-0.058-0.767,0.142-1.498,0.28-2.238c0.158-0.85,0.17-1.716,0.331-2.572
		c0.167-0.886,0.283-1.782,0.488-2.665c0.325-1.397,0.589-2.808,0.907-4.207c0.469-2.066,0.989-4.12,1.588-6.154
		c0.005-0.016,0.007-0.033,0.011-0.049H158.853z"/>
	<path fill="#31130F" d="M173.172,71.346c0.067,0.078,0.107,0.192,0.241,0.18c0.001,0.06,0.001,0.121,0.002,0.181
		c-0.001,0.03-0.001,0.06-0.001,0.091c-0.158,0.013-0.366-0.065-0.376,0.212c-0.332-0.012-0.478,0.151-0.536,0.478
		c-0.112,0.641-0.124,1.31-0.441,1.903c-0.691,1.293-1.787,2.104-3.147,2.564c-1.729,0.584-3.479,0.684-5.235,0.098
		c0.108-0.179,0.116-0.374,0.092-0.574c0.176-0.438,0.113-0.939,0.413-1.356c0.155-0.215,0.1-0.543,0.027-0.799
		c-0.071-0.251-0.342-0.095-0.518-0.146c-0.099-0.029-0.203-0.068-0.283-0.13c-0.277-0.213-0.509-0.074-0.576,0.168
		c-0.093,0.332-0.347,0.489-0.56,0.685c-0.567,0.522-0.687,0.577-1.365-0.122c-0.216-0.223-0.357-0.508-0.663-0.664
		c-0.237-0.121-0.213,0.034-0.264,0.145c-0.941-1.406-1.465-2.939-1.376-4.645c0.049-0.946,0.143-1.889,0.227-2.832
		c0.019-0.218-0.011-0.542,0.247-0.576c0.269-0.036,0.571,0.058,0.728,0.369c0.158,0.313,0.352,0.608,0.517,0.919
		c0.846,1.596,2.051,2.824,3.675,3.636c0.714,0.357,1.459,0.535,2.258,0.468c0.138,0.143,0.266,0.144,0.381-0.029
		c0.119-0.017,0.238-0.033,0.357-0.05c0.143,0.12,0.272,0.136,0.376-0.049c0.12-0.017,0.24-0.033,0.36-0.05
		c0.044,0.072,0.066,0.048,0.078-0.018c0.018-0.015,0.037-0.018,0.058-0.008c0.047-0.014,0.093-0.028,0.139-0.041
		c0.059-0.014,0.117-0.028,0.176-0.042c0.873,0.042,1.607-0.297,2.271-0.829l0.028,0.024l-0.027-0.026
		c0.329,0.046,0.55-0.336,0.895-0.227c-0.041,0.189-0.407,0.24-0.249,0.494c0.243,0.391,0.348,0.832,0.485,1.258
		c0.126,0.392,0.281,0.394,0.565,0.152C172.479,71.875,172.783,71.556,173.172,71.346z M165.535,73.446l-0.013,0.014
		c-0.194-0.001-0.277,0.093-0.245,0.285c-0.025,0.164-0.01,0.335-0.104,0.487c-0.417,0.678-0.533,1.5-1.017,2.146
		c-0.181,0.242-0.099,0.414,0.163,0.477c0.74,0.176,1.495,0.363,2.253,0.213c0.974-0.193,1.988-0.238,2.899-0.697
		c0.109,0.014,0.167-0.037,0.178-0.144c0.034-0.013,0.067-0.026,0.101-0.04c0.315,0.049,0.401-0.25,0.538-0.409
		c0.398-0.461,0.439-1.194-0.197-1.57c-0.346-0.053-0.668,0.035-0.983,0.166c-0.067,0.003-0.134,0.005-0.201,0.008
		c-0.08,0.004-0.161,0.008-0.241,0.012c-0.087-0.021-0.162-0.01-0.209,0.078c-0.113,0.005-0.226,0.011-0.34,0.016
		c-0.085-0.147-0.451,0.197-0.381-0.219c0.741-0.24,1.51-0.343,2.273-0.477c0.194-0.034,0.521-0.066,0.421-0.349
		c-0.219-0.624-0.252-1.281-0.417-1.913c-0.078-0.299-0.219-0.352-0.496-0.243c-0.424,0.167-0.858,0.309-1.29,0.453
		c-0.711,0.236-0.712,0.233-0.726,0.965c-0.08,0.008-0.161,0.017-0.241,0.025c-0.029-0.006-0.057-0.013-0.085-0.023
		c-0.117-0.329-0.404-0.305-0.637-0.241c-0.369,0.101-0.613,0.393-0.825,0.702l-0.013,0.014
		C165.518,73.188,165.522,73.314,165.535,73.446z M165.086,72.196c0.053-0.162-0.035-0.277-0.215-0.297
		c-0.551-0.063-0.998-0.354-1.452-0.633c-0.187-0.115-0.329-0.097-0.463,0.097c-0.313,0.451-0.577,0.928-0.818,1.421
		c-0.129,0.264-0.03,0.383,0.205,0.489c0.612,0.276,1.25,0.481,1.888,0.684c0.202,0.064,0.351,0.034,0.435-0.191
		C164.853,73.265,164.985,72.75,165.086,72.196z M161.78,70.211c0.013-0.116-0.047-0.202-0.109-0.29
		c-0.229-0.323-0.5-0.609-0.775-0.893c-0.189-0.196-0.318-0.159-0.476,0.04c-0.264,0.333-0.53,0.668-0.832,0.965
		c-0.157,0.155-0.146,0.246-0.002,0.36c0.451,0.356,0.906,0.707,1.362,1.057c0.11,0.085,0.257,0.097,0.323-0.024
		C161.48,71.039,161.673,70.642,161.78,70.211z M164.646,74.221c-0.024,0.029-0.072,0.068-0.092,0.117
		c-0.021,0.051,0.026,0.098,0.072,0.08c0.049-0.019,0.099-0.065,0.122-0.112C164.771,74.259,164.73,74.224,164.646,74.221z"/>
	<path fill="#F5F6F5" d="M161.865,61.642c0.719-0.527,1.49-0.954,2.4-0.991c1.035-0.041,1.921,0.352,2.668,1.063
		c0.051,0.108,0.095,0.22,0.154,0.323c0.497,0.861,0.722,1.791,0.745,2.781c0.023,0.976-0.41,1.78-0.916,2.563
		c-1.199,1.387-3.184,1.45-4.144,0.919c-0.122-0.084-0.245-0.168-0.367-0.253c-0.623-0.434-1.149-0.956-1.499-1.64
		c0.037-0.292,0.198-0.533,0.312-0.795c0.159-0.365,0.188-0.728-0.231-0.969c-0.097-0.209-0.278-0.334-0.458-0.459
		c0.004-0.062,0.007-0.125,0.011-0.187c0.099-0.296,0.198-0.592,0.297-0.887c0.072-0.035,0.099-0.092,0.087-0.17
		c0.031-0.067,0.061-0.134,0.092-0.2c0.08-0.041,0.121-0.105,0.112-0.197l0,0.001c0.132-0.093,0.217-0.219,0.255-0.376
		c0.069-0.083,0.139-0.165,0.208-0.248C161.729,61.872,161.795,61.756,161.865,61.642z M167.125,65.57
		c-0.004-0.66-0.507-1.1-1.145-0.943c-0.855,0.21-1.368,0.816-1.674,1.611c-0.14,0.363-0.155,0.725,0.158,1.017
		c0.32,0.299,0.702,0.441,1.136,0.326C166.324,67.39,167.129,66.313,167.125,65.57z"/>
	<path fill="#BD2D1E" d="M184.903,74.209c0.467,0.023,0.83-0.285,1.254-0.404c0.54-0.152,1.057-0.384,1.584-0.582
		c0.327,0.048,0.602-0.243,0.936-0.141c-0.504,0.322-1.103,0.428-1.624,0.714c-1.284,0.707-2.68,1.157-4.018,1.74
		c-0.891,0.388-1.794,0.749-2.669,1.171c-1.066,0.514-2.105,1.085-3.162,1.619c-0.596,0.302-1.188,0.628-1.814,0.852
		c-0.404,0.145-0.384,0.362-0.308,0.663c0.015,0.058,0.06,0.109,0.074,0.167c0.046,0.186,0.29,0.425,0.039,0.548
		c-0.243,0.119-0.35-0.201-0.444-0.367c-0.38-0.669-0.53-1.429-0.733-2.157c-0.486-1.742-0.752-3.534-1.03-5.32
		c-0.023-0.151-0.043-0.304,0.044-0.446c0.135-0.017,0.176,0.058,0.211,0.178c0.314,1.089,0.387,2.225,0.644,3.325
		c0.21,0.897,0.38,1.806,0.634,2.69c0.144,0.503,0.524,0.53,0.914,0.133c0.055-0.01,0.109-0.02,0.164-0.03
		c0.256,0.11,0.454-0.087,0.615-0.192c0.354-0.229,0.836-0.271,1.064-0.69c0.09-0.013,0.171-0.039,0.19-0.146
		c0.258-0.075,0.532-0.123,0.677-0.392l0.041,0.007c0.156,0.009,0.292-0.04,0.433-0.111c1.571-0.787,3.181-1.489,4.802-2.166
		c0.495-0.207,1.042-0.318,1.47-0.676L184.903,74.209z"/>
	<path fill="#BD2D1E" d="M159.035,56.145c-0.004,0.016-0.007,0.033-0.011,0.049c-0.599,2.033-1.119,4.087-1.588,6.154
		c-0.318,1.399-0.582,2.81-0.907,4.207c-0.206,0.883-0.322,1.779-0.488,2.665c-0.161,0.856-0.173,1.722-0.331,2.572
		c-0.138,0.74-0.339,1.471-0.28,2.238c0.021,0.272,0.018,0.554-0.033,0.821c-0.206,1.083-0.263,2.173-0.221,3.271
		c0.216-0.094,0.136-0.29,0.131-0.441c-0.019-0.567,0.038-1.134,0.144-1.681c0.214-1.105,0.404-2.214,0.505-3.332
		c0.135-1.498,0.326-2.973,0.671-4.448c0.274-1.169,0.38-2.395,0.589-3.591c0.269-1.54,0.731-3.036,1.119-4.549
		c0.335-1.306,0.593-2.632,0.942-3.935H159.035z"/>
	<path fill="#281009" d="M159.981,74.26c0.051-0.111,0.027-0.266,0.264-0.145c0.306,0.156,0.447,0.441,0.663,0.664
		c0.678,0.699,0.798,0.645,1.365,0.122c0.213-0.197,0.468-0.353,0.56-0.685c0.068-0.242,0.299-0.381,0.576-0.168
		c0.081,0.062,0.184,0.101,0.283,0.13c0.175,0.051,0.447-0.105,0.518,0.146c0.072,0.256,0.128,0.584-0.027,0.799
		c-0.3,0.417-0.236,0.918-0.412,1.356c-0.332-0.016-0.247-0.414-0.504-0.531c-0.527-0.241-1.108-0.266-1.644-0.465
		c-0.154-0.057-0.305-0.004-0.331,0.202C160.708,75.346,160.276,74.866,159.981,74.26z"/>
	<path fill="#170606" d="M163.651,56.71c-0.052,0.046-0.105,0.092-0.157,0.138c-0.195,0.045-0.462,0.116-0.401,0.332
		c0.057,0.204,0.28,0.015,0.42-0.026c0.259-0.077,0.289,0.065,0.288,0.259c-0.927,0.516-1.801,1.113-2.654,1.743
		c-0.621-0.172-0.07-0.444-0.048-0.668c-0.365-0.059-0.405-0.116-0.14-0.355c0.579-0.523,1.26-0.913,1.954-1.257
		c0.22-0.109,0.393-0.416,0.715-0.294C163.635,56.624,163.643,56.667,163.651,56.71z"/>
	<path fill="#BD2D1E" d="M163.849,78.247c0.836,0.463,1.739,0.358,2.628,0.368c1.066,0.012,2.089-0.157,3.041-0.662
		c0.027-0.014,0.053-0.035,0.082-0.04c0.153-0.025,0.353-0.224,0.445-0.046c0.101,0.196-0.167,0.243-0.298,0.324
		c-1.628,1.012-3.353,1.166-5.158,0.57C164.175,78.626,164.063,78.553,163.849,78.247z"/>
	<path fill="#652B26" d="M171.347,70.255c-0.345-0.11-0.566,0.272-0.895,0.227c0.87-0.574,1.78-1.093,2.543-1.815
		c0.234-0.222,0.702-0.418,0.591-0.725c-0.111-0.309-0.611-0.292-0.954-0.377c-0.042-0.01-0.09,0.003-0.136,0.006
		c0.003-0.165,0.12-0.28,0.182-0.419c0.124-0.004,0.248-0.007,0.372-0.011c0.145,0.042,0.29,0.084,0.434,0.127
		c0.701,0.206,0.777,0.383,0.442,1.027c-0.05,0.003-0.099,0.006-0.149,0.008c-0.27,0.258-0.578,0.483-0.75,0.831
		c-0.041,0.081-0.083,0.161-0.124,0.242c-0.177-0.011-0.297,0.091-0.439,0.18C172.092,69.788,171.802,70.155,171.347,70.255z"/>
	<path fill="#31130F" d="M172.678,67.151c-0.062,0.139-0.179,0.254-0.182,0.419c-1.001,1.223-2.26,1.817-3.859,1.576
		c0-0.091-0.001-0.182-0.001-0.274c0.424-0.02,0.846,0.028,1.273-0.037c1.93-0.295,2.989-2.27,3.133-3.698
		c0.035-0.346,0.031-0.696,0.044-1.044c0.293,0.328,0.152,0.713,0.096,1.061c-0.086,0.532-0.199,1.063-0.457,1.552
		C172.661,66.83,172.692,67.002,172.678,67.151z"/>
	<path fill="#652B26" d="M175.435,78.592c-0.39,0.398-0.77,0.37-0.914-0.133c-0.254-0.884-0.425-1.793-0.634-2.69
		c-0.257-1.1-0.33-2.236-0.644-3.325c-0.035-0.12-0.076-0.194-0.211-0.178c0.002-0.086,0.004-0.172,0.006-0.257
		c0.009-0.276,0.218-0.198,0.375-0.211c0.128,0.246,0.168,0.515,0.182,0.786c0.055,1.034,0.289,2.041,0.515,3.043
		c0.157,0.695,0.303,1.391,0.406,2.094C174.624,78.448,174.837,78.668,175.435,78.592z"/>
	<path fill="#230C05" d="M161.293,75.685c0.026-0.206,0.177-0.259,0.331-0.202c0.536,0.199,1.117,0.224,1.644,0.465
		c0.257,0.117,0.172,0.515,0.504,0.531c0.024,0.2,0.015,0.395-0.092,0.574C162.765,76.804,161.996,76.301,161.293,75.685z"/>
	<path fill="#31130F" d="M163.627,56.581c-0.323-0.122-0.495,0.184-0.715,0.294c-0.693,0.344-1.374,0.734-1.954,1.257
		c-0.265,0.239-0.225,0.297,0.14,0.355c-0.022,0.224-0.573,0.496,0.048,0.668c-0.09,0.08-0.175,0.167-0.272,0.237
		c-0.084,0.061-0.184,0.132-0.292,0.059c-0.11-0.075-0.079-0.193-0.041-0.29c0.071-0.182,0.147-0.334-0.145-0.401
		c-0.178-0.041-0.149-0.204-0.088-0.338c0.084-0.185,0.228-0.32,0.394-0.433c0.842-0.571,1.703-1.113,2.604-1.587
		c0.104-0.055,0.23-0.098,0.345-0.096c0.182,0.003,0.306,0.079,0.148,0.281C163.742,56.585,163.684,56.583,163.627,56.581z"/>
	<path fill="#31130F" d="M162.772,68.3c0.96,0.531,2.945,0.468,4.144-0.919c0.11,0.004,0.22,0.008,0.33,0.013
		c-0.077,0.089-0.154,0.178-0.231,0.266c-0.164,0.187-0.143,0.344,0.077,0.467c-0.01,0.092-0.037,0.174-0.129,0.217
		c-0.055-0.036-0.109-0.072-0.164-0.108l-0.01-0.009c-0.109-0.001-0.217-0.002-0.326-0.003l-0.006,0.004
		c-1.117,0.725-2.31,0.878-3.574,0.464c-0.066-0.022-0.12-0.084-0.179-0.127C162.728,68.478,162.75,68.389,162.772,68.3z"/>
	<path fill="#652B26" d="M162.772,68.3c-0.022,0.089-0.044,0.178-0.067,0.266c-1.012-0.29-1.553-1.106-2.115-1.898
		c-0.059-0.083-0.114-0.196-0.019-0.292c0.116-0.116,0.224,0.003,0.334,0.03c0.349,0.684,0.876,1.206,1.499,1.64
		C162.527,68.132,162.65,68.216,162.772,68.3z"/>
	<path fill="#BD2D1E" d="M155.032,78.599c0.026-0.003,0.052-0.004,0.077-0.004c0.254,0.394,0.114,0.822,0.072,1.227
		c-0.059,0.584,0.013,0.76,0.557,0.986c0.098,0.041,0.197,0.083,0.288,0.138c0.102,0.061,0.155,0.167,0.096,0.273
		c-0.061,0.109-0.168,0.036-0.243,0.004c-0.412-0.174-0.902-0.202-1.187-0.619c0.476-0.522,0.375-1.151,0.331-1.77
		C155.027,78.755,155.029,78.677,155.032,78.599z"/>
	<path fill="#BD2D1E" d="M160.53,64.183c0.181,0.125,0.361,0.251,0.458,0.459c-0.17,0.191-0.332,0.029-0.442-0.053
		c-0.472-0.353-0.91-0.21-1.359,0.036c-0.078,0.043-0.145,0.222-0.258,0.086c-0.115-0.138,0.047-0.214,0.123-0.293
		c0.287-0.3,0.691-0.363,1.054-0.509C160.101,64.227,160.329,64.185,160.53,64.183z"/>
	<path fill="#652B26" d="M160.53,64.183c-0.201,0.002-0.429,0.044-0.423-0.274c0.271-0.773,0.558-1.537,1.207-2.091
		c0.006,0.119-0.049,0.251,0.07,0.348c-0.038,0.157-0.123,0.283-0.255,0.376c-0.01-0.007-0.02-0.013-0.029-0.02
		c0.01,0.006,0.02,0.013,0.03,0.019c0.008,0.092-0.033,0.155-0.113,0.197c-0.068,0.015-0.171,0.008-0.196,0.049
		c-0.047,0.078,0.04,0.119,0.104,0.152c0.012,0.078-0.014,0.136-0.087,0.17c-0.297,0.074-0.617,0.596-0.496,0.828
		c0.022,0.043,0.13,0.041,0.199,0.059C160.537,64.058,160.534,64.12,160.53,64.183z"/>
	<path fill="#BD2D1E" d="M180.002,79.838c-0.192,0.01-0.326-0.051-0.342-0.268c-0.019-0.266,0.317-0.575,0.642-0.588
		c0.2-0.008,0.371,0.046,0.406,0.27C180.744,79.498,180.33,79.833,180.002,79.838z"/>
	<path fill="#BD2D1E" d="M175.137,91.835c-0.015,0.152,0.02,0.41-0.278,0.379c-0.355-0.038-0.374-0.358-0.414-0.624
		c-0.033-0.219,0.115-0.386,0.311-0.367C175.072,91.252,175.154,91.507,175.137,91.835z"/>
	<path fill="#652B26" d="M166.964,68.344c0.092-0.044,0.119-0.125,0.129-0.217c0.458,0.365,0.99,0.577,1.543,0.746
		c0,0.091,0.001,0.182,0.001,0.274C168.014,69.015,167.417,68.831,166.964,68.344z"/>
	<path fill="#BD2D1E" d="M138.336,79.125c-0.189-0.051-0.463-0.058-0.454-0.331c0.008-0.241,0.262-0.284,0.456-0.27
		c0.191,0.015,0.481-0.014,0.455,0.303C138.774,79.065,138.563,79.12,138.336,79.125z"/>
	<path fill="#BD2D1E" d="M194.443,75.623c-0.188,0.014-0.298-0.042-0.28-0.195c0.033-0.289,0.203-0.465,0.5-0.484
		c0.147-0.009,0.289,0.051,0.273,0.226C194.908,75.487,194.658,75.569,194.443,75.623z"/>
	<path fill="#652B26" d="M170.451,70.483c-0.664,0.532-1.398,0.871-2.271,0.829C168.937,71.036,169.694,70.759,170.451,70.483z"/>
	<path fill="#BD2D1E" d="M193.85,71.983c0.021-0.039,0.038-0.111,0.064-0.114c0.694-0.085,1.388-0.18,2.075,0.048
		C195.279,72.05,194.563,71.975,193.85,71.983z"/>
	<path fill="#652B26" d="M163.8,57.413c0.002-0.194-0.028-0.337-0.288-0.259c-0.139,0.042-0.362,0.23-0.42,0.026
		c-0.061-0.216,0.206-0.286,0.401-0.332c-0.016,0.127,0.015,0.15,0.139,0.09c0.194-0.093,0.475-0.179,0.561,0.044
		C164.289,57.231,164.016,57.341,163.8,57.413z"/>
	<path fill="#BD2D1E" d="M169.009,86.145c-0.006,0.164-0.022,0.34-0.226,0.324c-0.179-0.014-0.216-0.191-0.232-0.341
		c-0.017-0.151,0.044-0.282,0.212-0.286C168.959,85.838,169,85.99,169.009,86.145z"/>
	<path fill="#652B26" d="M161.865,61.642c-0.07,0.113-0.136,0.23-0.273,0.276c-0.006-0.134-0.063-0.211-0.209-0.194
		c0.152-0.283,0.366-0.499,0.674-0.609C162.046,61.311,161.687,61.379,161.865,61.642z"/>
	<path fill="#BD2D1E" d="M189.65,72.72c0.098,0.007,0.197,0.014,0.295,0.021c-0.266,0.151-0.551,0.224-0.856,0.219
		C189.21,72.725,189.439,72.744,189.65,72.72z"/>
	<path fill="#31130F" d="M161.383,61.724c0.145-0.017,0.203,0.06,0.209,0.194c-0.069,0.083-0.139,0.165-0.208,0.248
		c-0.119-0.097-0.064-0.228-0.07-0.348C161.337,61.787,161.36,61.756,161.383,61.724z"/>
	<path fill="#BD2D1E" d="M193.21,72.019c0.153-0.179,0.319-0.169,0.492-0.032C193.542,72.068,193.382,72.146,193.21,72.019z"/>
	<path fill="#652B26" d="M166.636,71.57c-0.115,0.173-0.243,0.172-0.381,0.029C166.377,71.526,166.505,71.526,166.636,71.57z"/>
	<path fill="#652B26" d="M167.369,71.471c-0.103,0.185-0.233,0.168-0.376,0.049C167.116,71.483,167.235,71.423,167.369,71.471z"/>
	<path fill="#BD2D1E" d="M196.859,72.192c0.073-0.011,0.146-0.022,0.219-0.033c0.003,0.067,0.007,0.135,0.011,0.202
		C196.965,72.368,196.885,72.316,196.859,72.192z"/>
	<path fill="#BD2D1E" d="M196.495,72.005c0.106-0.014,0.191,0.01,0.228,0.124C196.586,72.198,196.528,72.124,196.495,72.005z"/>
	<path fill="#652B26" d="M163.627,56.581c0.058,0.002,0.116,0.004,0.173,0.006c-0.023,0.073-0.074,0.113-0.149,0.123
		C163.643,56.667,163.635,56.624,163.627,56.581z"/>
	<path fill="#BD2D1E" d="M154.247,80.417c0.032,0.021,0.064,0.043,0.096,0.064C154.312,80.46,154.28,80.439,154.247,80.417z"/>
	<polygon fill="#652B26" points="166.79,68.228 166.801,68.236 166.782,68.247 	"/>
	<polygon fill="#652B26" points="166.458,68.229 166.464,68.225 166.47,68.241 	"/>
	<path fill="#652B26" d="M168.004,71.354c-0.046,0.014-0.093,0.028-0.139,0.041C167.911,71.381,167.957,71.367,168.004,71.354z"/>
	<polygon fill="#652B26" points="162.108,61.076 162.108,61.078 162.104,61.06 	"/>
	<path fill="#652B26" d="M167.806,71.404c-0.012,0.066-0.034,0.09-0.078,0.018C167.75,71.396,167.776,71.39,167.806,71.404z"/>
	<path fill="#1E0904" d="M155.797,68.953c0.009,0.076-0.008,0.143-0.072,0.192C155.572,69.015,155.673,68.98,155.797,68.953z"/>
	<path fill="#1C0707" d="M156.895,63.729c0.006,0.076-0.005,0.145-0.079,0.187C156.813,63.841,156.828,63.774,156.895,63.729z"/>
	<path fill="#1E0904" d="M156.617,65.008c-0.021,0.034-0.042,0.068-0.064,0.102c-0.015-0.02-0.031-0.04-0.047-0.061
		C156.543,65.036,156.58,65.022,156.617,65.008z"/>
	<path fill="#652B26" d="M181.846,88.275c0.248-0.599,0.813-0.924,1.219-1.387c0.396-0.452,0.928-0.777,1.274-1.287
		c0.094-0.138,0.226-0.253,0.421-0.226c-0.016,0.431-0.414,0.617-0.656,0.834c-0.659,0.591-1.252,1.244-1.887,1.855
		C182.114,88.165,182.036,88.323,181.846,88.275z"/>
	<path fill="#F5F6F5" d="M171.347,70.255c0.455-0.099,0.745-0.467,1.118-0.7c0.142-0.089,0.262-0.191,0.439-0.18
		c0.202,0.319,0.404,0.639,0.607,0.958c-0.011,0.114,0.035,0.201,0.126,0.267c0.015,0.094,0.03,0.188,0.044,0.281
		c-0.17,0.155-0.339,0.31-0.509,0.465c-0.39,0.21-0.693,0.529-1.024,0.812c-0.283,0.242-0.438,0.24-0.565-0.152
		c-0.137-0.426-0.242-0.866-0.485-1.258C170.94,70.495,171.307,70.443,171.347,70.255z"/>
	<path fill="#0C0504" d="M170.492,65.055c0.589-0.005,0.926,0.301,0.959,0.872c0.055,0.943-0.762,2.008-1.683,2.195
		c-0.492,0.1-0.865-0.1-1.023-0.547C168.349,66.454,169.311,65.066,170.492,65.055z"/>
	<path fill="#844438" d="M167.247,67.394c-0.11-0.004-0.22-0.008-0.33-0.013c0.506-0.782,0.938-1.587,0.916-2.563
		c-0.023-0.99-0.248-1.92-0.745-2.781c-0.06-0.103-0.103-0.215-0.154-0.323c0.194-0.048,0.175,0.399,0.439,0.19
		c0.389,0.299,0.482,0.759,0.598,1.186c0.342,1.263,0.439,2.519-0.28,3.705c-0.1,0.164-0.169,0.359-0.364,0.449
		c-0.039-0.032-0.076-0.105-0.127-0.033c-0.012,0.017,0.049,0.087,0.077,0.133l0.006,0.037L167.247,67.394z"/>
	<path fill="#31130F" d="M167.276,67.345c-0.028-0.046-0.089-0.116-0.077-0.133c0.051-0.072,0.088,0.001,0.127,0.033
		C167.309,67.278,167.293,67.311,167.276,67.345z"/>
	<path fill="#BD2D1E" d="M169.473,76.37c-0.911,0.459-1.925,0.503-2.899,0.697c-0.759,0.151-1.513-0.036-2.253-0.213
		c-0.263-0.063-0.345-0.235-0.163-0.477c0.484-0.646,0.6-1.468,1.017-2.146c0.093-0.151,0.078-0.323,0.103-0.487
		c0.151-0.035,0.25-0.115,0.246-0.285l0.013-0.014c0.126-0.043,0.179-0.132,0.168-0.263l0.013-0.014
		c0.521-0.047,0.882-0.602,1.462-0.462c0.028,0.009,0.056,0.017,0.085,0.023c0.003,0.443-0.013,0.887,0.014,1.328
		c0.031,0.506,0.439,0.703,0.842,0.43c0.113-0.005,0.226-0.011,0.339-0.016c0.121,0.112,0.166,0.019,0.209-0.078
		c0.08-0.004,0.161-0.008,0.241-0.012c0.07,0.072,0.137,0.071,0.201-0.008c0.315-0.132,0.637-0.219,0.983-0.166
		c0.104,0.697,0.003,1.359-0.341,1.979c-0.034,0.013-0.067,0.026-0.101,0.039C169.538,76.208,169.484,76.262,169.473,76.37z"/>
	<path fill="#F5F6F5" d="M167.504,72.705c0.013-0.732,0.014-0.729,0.726-0.965c0.433-0.144,0.866-0.286,1.29-0.453
		c0.276-0.109,0.418-0.056,0.496,0.243c0.165,0.631,0.197,1.289,0.417,1.913c0.1,0.283-0.227,0.315-0.421,0.349
		c-0.763,0.134-1.532,0.237-2.273,0.477c-0.177-0.083-0.137-0.242-0.151-0.392C167.55,73.486,167.65,73.087,167.504,72.705z"/>
	<path fill="#F5F6F5" d="M165.086,72.196c-0.101,0.554-0.232,1.069-0.419,1.57c-0.084,0.226-0.234,0.256-0.435,0.191
		c-0.638-0.204-1.275-0.408-1.888-0.684c-0.236-0.106-0.334-0.226-0.205-0.489c0.241-0.493,0.505-0.969,0.818-1.421
		c0.134-0.193,0.275-0.212,0.463-0.097c0.454,0.279,0.901,0.57,1.452,0.633C165.051,71.92,165.138,72.034,165.086,72.196z"/>
	<path fill="#F5F6F5" d="M161.78,70.211c-0.108,0.431-0.3,0.828-0.509,1.215c-0.066,0.121-0.213,0.109-0.323,0.024
		c-0.456-0.35-0.911-0.701-1.362-1.057c-0.144-0.114-0.155-0.205,0.002-0.36c0.301-0.297,0.568-0.632,0.832-0.965
		c0.158-0.199,0.286-0.236,0.476-0.04c0.275,0.284,0.546,0.57,0.775,0.893C161.733,70.009,161.794,70.095,161.78,70.211z"/>
	<path fill="#652B26" d="M169.751,76.186c0.344-0.62,0.445-1.282,0.341-1.979c0.636,0.377,0.595,1.109,0.197,1.57
		C170.152,75.936,170.067,76.235,169.751,76.186z"/>
	<path fill="#652B26" d="M167.504,72.705c0.146,0.382,0.046,0.781,0.083,1.171c0.014,0.15-0.026,0.31,0.151,0.392
		c-0.07,0.416,0.296,0.072,0.381,0.219c-0.404,0.274-0.811,0.077-0.842-0.43c-0.027-0.441-0.011-0.885-0.014-1.328
		C167.343,72.722,167.423,72.713,167.504,72.705z"/>
	<path fill="#652B26" d="M167.178,72.708c-0.58-0.141-0.941,0.415-1.462,0.462c0.212-0.31,0.456-0.601,0.825-0.702
		C166.774,72.403,167.061,72.379,167.178,72.708z"/>
	<path fill="#281009" d="M164.646,74.221c0.084,0.003,0.125,0.038,0.102,0.085c-0.023,0.047-0.073,0.094-0.122,0.112
		c-0.046,0.018-0.093-0.029-0.072-0.08C164.574,74.289,164.622,74.25,164.646,74.221z"/>
	<path fill="#652B26" d="M165.523,73.46c0.005,0.17-0.094,0.25-0.246,0.285C165.246,73.553,165.329,73.459,165.523,73.46z"/>
	<path fill="#652B26" d="M165.703,73.183c0.011,0.131-0.042,0.22-0.168,0.263C165.522,73.314,165.518,73.188,165.703,73.183z"/>
	<path fill="#652B26" d="M168.667,74.393c-0.043,0.097-0.087,0.19-0.209,0.078C168.504,74.384,168.579,74.372,168.667,74.393z"/>
	<path fill="#652B26" d="M169.473,76.37c0.011-0.108,0.065-0.162,0.178-0.145C169.64,76.334,169.582,76.384,169.473,76.37z"/>
	<path fill="#652B26" d="M169.109,74.374c-0.064,0.079-0.131,0.079-0.201,0.008C168.975,74.379,169.042,74.376,169.109,74.374z"/>
	<path fill="#0C0504" d="M167.125,65.57c0.004,0.743-0.801,1.82-1.524,2.011c-0.434,0.115-0.816-0.027-1.136-0.326
		c-0.313-0.293-0.298-0.655-0.158-1.017c0.306-0.795,0.819-1.401,1.674-1.611C166.618,64.47,167.121,64.91,167.125,65.57z"/>
	<path fill="#31130F" d="M160.541,63.996c-0.069-0.019-0.177-0.016-0.199-0.059c-0.122-0.232,0.199-0.755,0.496-0.828
		C160.739,63.404,160.64,63.7,160.541,63.996z"/>
	<path fill="#31130F" d="M160.924,62.938c-0.064-0.033-0.151-0.074-0.104-0.152c0.025-0.041,0.128-0.034,0.196-0.049
		C160.986,62.804,160.955,62.871,160.924,62.938z"/>
	<path fill="#652B26" d="M175.799,78.307c0.377-0.035,0.638-0.323,0.976-0.442c0.168-0.059,0.305-0.205,0.502-0.185
		c-0.228,0.42-0.71,0.461-1.064,0.69c-0.161,0.104-0.359,0.301-0.615,0.192C175.61,78.433,175.744,78.401,175.799,78.307z"/>
	<path fill="#31130F" d="M161.128,62.541c-0.01-0.006-0.02-0.013-0.03-0.019C161.108,62.528,161.118,62.535,161.128,62.541
		L161.128,62.541z"/>
</g>
<g>
	<path fill="#231F20" d="M28.247,86.558c0,0.682-0.549,1.243-1.236,1.243H10.199c-0.684,0-1.248-0.562-1.248-1.243V62.517
		c0-0.689,0.564-1.243,1.248-1.243h16.811c0.689,0,1.236,0.554,1.236,1.243V86.558z"/>
	<path fill="none" stroke="#13110C" stroke-width="6" d="M18.601,87.801c0,5.763,7.994,10.417,17.886,10.417"/>
</g>
<g>
	<path fill="#231F20" d="M212.143,86.558c0,0.682,0.565,1.243,1.241,1.243h16.812c0.677,0,1.242-0.562,1.242-1.243V62.517
		c0-0.689-0.565-1.243-1.242-1.243h-16.812c-0.676,0-1.241,0.554-1.241,1.243V86.558z"/>
	<path fill="none" stroke="#13110C" stroke-width="6" d="M221.794,87.801c0,5.763-7.994,10.417-17.883,10.417"/>
</g>
<path fill="#E30613" stroke="#DD1215" stroke-width="0.2339" d="M173.449,34.682c0,5.866,4.735,10.608,10.596,10.608
	c5.854,0,10.603-4.742,10.603-10.608c0-5.839-4.748-10.596-10.603-10.596C178.186,24.086,173.449,28.843,173.449,34.682z"/>
<path fill="#E30613" stroke="#DD1215" stroke-width="0.2339" d="M44.56,34.682c0,5.866,4.744,10.608,10.584,10.608
	c5.863,0,10.613-4.742,10.613-10.608c0-5.839-4.75-10.596-10.613-10.596C49.304,24.086,44.56,28.843,44.56,34.682z"/>
<g>
	<path d="M74.525,24.132c0.953-0.173,2.46-0.303,3.989-0.303c2.183,0,3.587,0.324,4.643,1.06c0.878,0.562,1.402,1.427,1.402,2.573
		c0,1.406-1.078,2.638-2.857,3.2v0.043c1.604,0.346,3.484,1.492,3.484,3.654c0,1.254-0.575,2.206-1.43,2.919
		c-1.179,0.93-3.085,1.362-5.845,1.362c-1.505,0-2.659-0.086-3.389-0.173L74.525,24.132L74.525,24.132z M76.707,30.099h1.979
		c2.311,0,3.663-1.038,3.663-2.443c0-1.708-1.505-2.378-3.713-2.378c-1.003,0-1.58,0.065-1.932,0.13L76.707,30.099L76.707,30.099z
		 M76.707,37.083c0.427,0.065,1.054,0.087,1.831,0.087c2.258,0,4.34-0.714,4.34-2.833c0-1.989-1.981-2.811-4.364-2.811h-1.807
		V37.083L76.707,37.083z"/>
	<path d="M90.305,23.937v8.627c0,3.265,1.682,4.648,3.938,4.648c2.509,0,4.112-1.427,4.112-4.648v-8.627h2.207v8.498
		c0,4.476-2.732,6.313-6.396,6.313c-3.462,0-6.07-1.708-6.07-6.227v-8.584H90.305z"/>
	<path d="M104.053,36.218c0.979,0.519,2.408,0.952,3.913,0.952c2.232,0,3.537-1.017,3.537-2.487c0-1.362-0.903-2.141-3.188-2.897
		c-2.76-0.843-4.465-2.076-4.465-4.13c0-2.271,2.184-3.957,5.469-3.957c1.73,0,2.984,0.346,3.737,0.714l-0.603,1.535
		c-0.553-0.26-1.683-0.692-3.211-0.692c-2.31,0-3.188,1.189-3.188,2.184c0,1.362,1.028,2.032,3.361,2.811
		c2.858,0.951,4.312,2.14,4.312,4.281c0,2.249-1.932,4.195-5.92,4.195c-1.631,0-3.411-0.411-4.312-0.93L104.053,36.218z"/>
	<path d="M121.889,31.959v1.405h-6.194v-1.405H121.889z"/>
	<path d="M124.549,24.132c0.953-0.173,2.459-0.303,3.989-0.303c2.182,0,3.587,0.324,4.641,1.06c0.878,0.562,1.404,1.427,1.404,2.573
		c0,1.406-1.078,2.638-2.858,3.2v0.043c1.605,0.346,3.485,1.492,3.485,3.654c0,1.254-0.576,2.206-1.43,2.919
		c-1.18,0.93-3.086,1.362-5.846,1.362c-1.506,0-2.659-0.086-3.388-0.173L124.549,24.132L124.549,24.132z M126.733,30.099h1.981
		c2.309,0,3.663-1.038,3.663-2.443c0-1.708-1.506-2.378-3.713-2.378c-1.004,0-1.58,0.065-1.933,0.13L126.733,30.099L126.733,30.099z
		 M126.733,37.083c0.428,0.065,1.055,0.087,1.831,0.087c2.258,0,4.34-0.714,4.34-2.833c0-1.989-1.98-2.811-4.363-2.811h-1.808
		V37.083L126.733,37.083z"/>
	<path d="M149.962,38.034c-0.803,0.346-2.408,0.692-4.465,0.692c-4.768,0-8.355-2.595-8.355-7.373c0-4.562,3.587-7.654,8.829-7.654
		c2.107,0,3.438,0.389,4.015,0.649l-0.526,1.535c-0.827-0.346-2.007-0.605-3.411-0.605c-3.964,0-6.598,2.184-6.598,6.011
		c0,3.567,2.383,5.859,6.497,5.859c1.329,0,2.685-0.238,3.562-0.605L149.962,38.034z"/>
	<path d="M152.698,38.51V23.937h2.384l5.418,7.373c1.254,1.708,2.231,3.244,3.035,4.735l0.051-0.021
		c-0.201-1.946-0.251-3.719-0.251-5.989v-6.098h2.058V38.51h-2.207l-5.368-7.394c-1.181-1.622-2.31-3.287-3.16-4.865l-0.075,0.021
		c0.125,1.838,0.176,3.589,0.176,6.011v6.227L152.698,38.51L152.698,38.51z"/>
</g>
<path fill="none" stroke="#13110C" stroke-width="6" d="M185.608,93.131c0-9.027-9.754-15.581-18.487-15.581
	c-8.732,0-18.476,6.668-18.476,15.581"/>
</svg>
